# xmcd
# 
# Track frame offsets:
#     150
#     17203
#     32879
#     50904
#     67706
#     84265
#     99485
#     115317
#     130171
#     145571
#     165061
#     184330
#     204236
# 
# Disc length: 2936
# 
# Revision: 2
# Processed by: cddbd v1.5.2PL0 Copyright (c) Steve Scherf et al.
# Submitted via: fre:ac v1.0.31
# 
DISCID=a30b760d
DTITLE=James Cotton - Cotton Mouth Man
DYEAR=2013
DGENRE=Blues
TTITLE0=Cotton Mouth Man
TTITLE1=Midnight Train
TTITLE2=Mississippi Mud
TTITLE3=He Was There
TTITLE4=Something For Me
TTITLE5=Wrapped Around My Heart
TTITLE6=Saint On Sunday
TTITLE7=Hard Sometimes
TTITLE8=Young Bold Woman
TTITLE9=Bird Nest On the Ground
TTITLE10=Wasn't My Time To Go
TTITLE11=Blues Is Good For You
TTITLE12=Bonnie Blue
EXTD=
EXTT0=
EXTT1=
EXTT2=
EXTT3=
EXTT4=
EXTT5=
EXTT6=
EXTT7=
EXTT8=
EXTT9=
EXTT10=
EXTT11=
EXTT12=
PLAYORDER=
